{
	"asset":{
		"generator":"Khronos glTF Blender I/O v4.2.57",
		"version":"2.0"
	},
	"scene":0,
	"scenes":[
		{
			"name":"Scene",
			"nodes":[
				1
			]
		}
	],
	"nodes":[
		{
			"mesh":0,
			"name":"LightBox",
			"translation":[
				-2.999999761581421,
				-1,
				2
			]
		},
		{
			"children":[
				0
			],
			"mesh":1,
			"name":"Room",
			"translation":[
				0,
				2,
				0
			]
		}
	],
	"materials":[
		{
			"doubleSided":true,
			"emissiveFactor":[
				0.28519606590270996,
				1,
				0.21338459849357605
			],
			"name":"mGlow",
			"pbrMetallicRoughness":{
				"baseColorFactor":[
					0.800000011920929,
					0.800000011920929,
					0.800000011920929,
					1
				],
				"metallicFactor":0,
				"roughnessFactor":0.5
			}
		},
		{
			"doubleSided":true,
			"name":"nWall",
			"normalTexture":{
				"index":0
			},
			"pbrMetallicRoughness":{
				"baseColorTexture":{
					"index":1
				},
				"metallicFactor":0,
				"roughnessFactor":0.800000011920929
			}
		},
		{
			"doubleSided":true,
			"name":"mFloor",
			"normalTexture":{
				"index":2
			},
			"pbrMetallicRoughness":{
				"baseColorTexture":{
					"index":3
				},
				"metallicFactor":0,
				"roughnessFactor":0.5
			}
		},
		{
			"doubleSided":true,
			"name":"mCeiling",
			"pbrMetallicRoughness":{
				"baseColorFactor":[
					0.8000000715255737,
					0.7031785845756531,
					0.6408043503761292,
					1
				],
				"metallicFactor":0,
				"roughnessFactor":0.8999999761581421
			}
		}
	],
	"meshes":[
		{
			"name":"Cube.001",
			"primitives":[
				{
					"attributes":{
						"POSITION":0,
						"NORMAL":1,
						"TEXCOORD_0":2
					},
					"indices":3,
					"material":0
				}
			]
		},
		{
			"name":"Room",
			"primitives":[
				{
					"attributes":{
						"POSITION":4,
						"NORMAL":5,
						"TEXCOORD_0":6
					},
					"indices":7,
					"material":1
				},
				{
					"attributes":{
						"POSITION":8,
						"NORMAL":9,
						"TEXCOORD_0":10
					},
					"indices":11,
					"material":2
				},
				{
					"attributes":{
						"POSITION":12,
						"NORMAL":13,
						"TEXCOORD_0":14
					},
					"indices":15,
					"material":3
				}
			]
		}
	],
	"textures":[
		{
			"sampler":0,
			"source":0
		},
		{
			"sampler":0,
			"source":1
		},
		{
			"sampler":0,
			"source":2
		},
		{
			"sampler":0,
			"source":3
		}
	],
	"images":[
		{
			"mimeType":"image/png",
			"name":"brick-normal",
			"uri":"brick-normal.png"
		},
		{
			"mimeType":"image/png",
			"name":"brick-diffuse",
			"uri":"brick-diffuse.png"
		},
		{
			"mimeType":"image/png",
			"name":"ground-normal",
			"uri":"ground-normal.png"
		},
		{
			"mimeType":"image/png",
			"name":"ground-albedo",
			"uri":"ground-albedo.png"
		}
	],
	"accessors":[
		{
			"bufferView":0,
			"componentType":5126,
			"count":24,
			"max":[
				1,
				2,
				1
			],
			"min":[
				-1,
				-1,
				-1
			],
			"type":"VEC3"
		},
		{
			"bufferView":1,
			"componentType":5126,
			"count":24,
			"type":"VEC3"
		},
		{
			"bufferView":2,
			"componentType":5126,
			"count":24,
			"type":"VEC2"
		},
		{
			"bufferView":3,
			"componentType":5123,
			"count":36,
			"type":"SCALAR"
		},
		{
			"bufferView":4,
			"componentType":5126,
			"count":194,
			"max":[
				4.400000095367432,
				2.4000000953674316,
				3.4000000953674316
			],
			"min":[
				-4.400000095367432,
				-2.4000000953674316,
				-3.4000000953674316
			],
			"type":"VEC3"
		},
		{
			"bufferView":5,
			"componentType":5126,
			"count":194,
			"type":"VEC3"
		},
		{
			"bufferView":6,
			"componentType":5126,
			"count":194,
			"type":"VEC2"
		},
		{
			"bufferView":7,
			"componentType":5123,
			"count":600,
			"type":"SCALAR"
		},
		{
			"bufferView":8,
			"componentType":5126,
			"count":22,
			"max":[
				4.400000095367432,
				-2,
				3.4000000953674316
			],
			"min":[
				-4.400000095367432,
				-2.4000000953674316,
				-3.4000000953674316
			],
			"type":"VEC3"
		},
		{
			"bufferView":9,
			"componentType":5126,
			"count":22,
			"type":"VEC3"
		},
		{
			"bufferView":10,
			"componentType":5126,
			"count":22,
			"type":"VEC2"
		},
		{
			"bufferView":11,
			"componentType":5123,
			"count":54,
			"type":"SCALAR"
		},
		{
			"bufferView":12,
			"componentType":5126,
			"count":150,
			"max":[
				4.400000095367432,
				2.4000000953674316,
				3.4000000953674316
			],
			"min":[
				-4.400000095367432,
				-1.5,
				-3.4000000953674316
			],
			"type":"VEC3"
		},
		{
			"bufferView":13,
			"componentType":5126,
			"count":150,
			"type":"VEC3"
		},
		{
			"bufferView":14,
			"componentType":5126,
			"count":150,
			"type":"VEC2"
		},
		{
			"bufferView":15,
			"componentType":5123,
			"count":246,
			"type":"SCALAR"
		}
	],
	"bufferViews":[
		{
			"buffer":0,
			"byteLength":288,
			"byteOffset":0,
			"target":34962
		},
		{
			"buffer":0,
			"byteLength":288,
			"byteOffset":288,
			"target":34962
		},
		{
			"buffer":0,
			"byteLength":192,
			"byteOffset":576,
			"target":34962
		},
		{
			"buffer":0,
			"byteLength":72,
			"byteOffset":768,
			"target":34963
		},
		{
			"buffer":0,
			"byteLength":2328,
			"byteOffset":840,
			"target":34962
		},
		{
			"buffer":0,
			"byteLength":2328,
			"byteOffset":3168,
			"target":34962
		},
		{
			"buffer":0,
			"byteLength":1552,
			"byteOffset":5496,
			"target":34962
		},
		{
			"buffer":0,
			"byteLength":1200,
			"byteOffset":7048,
			"target":34963
		},
		{
			"buffer":0,
			"byteLength":264,
			"byteOffset":8248,
			"target":34962
		},
		{
			"buffer":0,
			"byteLength":264,
			"byteOffset":8512,
			"target":34962
		},
		{
			"buffer":0,
			"byteLength":176,
			"byteOffset":8776,
			"target":34962
		},
		{
			"buffer":0,
			"byteLength":108,
			"byteOffset":8952,
			"target":34963
		},
		{
			"buffer":0,
			"byteLength":1800,
			"byteOffset":9060,
			"target":34962
		},
		{
			"buffer":0,
			"byteLength":1800,
			"byteOffset":10860,
			"target":34962
		},
		{
			"buffer":0,
			"byteLength":1200,
			"byteOffset":12660,
			"target":34962
		},
		{
			"buffer":0,
			"byteLength":492,
			"byteOffset":13860,
			"target":34963
		}
	],
	"samplers":[
		{
			"magFilter":9729,
			"minFilter":9987
		}
	],
	"buffers":[
		{
			"byteLength":14352,
			"uri":"room.bin"
		}
	]
}
